<svg xmlns="http://www.w3.org/2000/svg" xmlns:xlink="http://www.w3.org/1999/xlink" width="56" height="72" viewBox="0 0 56 72"><defs><path id="b" d="M152.65 1430h37.75c.88 0 1.6.72 1.6 1.6v64.01c0 .88-.72 1.6-1.6 1.6h-7.2v1.6a1.6 1.6 0 0 1-2.4 1.38l-4.8-2.75-4.8 2.75a1.6 1.6 0 1 1-2.4-1.38v-1.6h-31.2a1.6 1.6 0 0 1-1.6-1.6v-49.53c0-.45.18-.87.5-1.18l15.2-14.47c.26-.25.59-.4.95-.43zm1.75 3.2v10.4h23.2a1.6 1.6 0 0 1 1.4 2.41c-.29.5-.82.8-1.4.79h-23.2c0 .89-.72 1.6-1.6 1.6h-13.6v45.61h29.6v-9.68a9.53 9.53 0 0 1-2.4-6.32c0-5.29 4.32-9.6 9.6-9.6 5.28 0 9.6 4.31 9.6 9.6 0 2.42-.91 4.63-2.4 6.32v9.68h5.6v-60.81zm-13.57 12h10.37v-9.87zm36.77 6.4a1.6 1.6 0 0 1 1.4 2.41c-.29.5-.82.8-1.4.79h-27.2a1.6 1.6 0 0 1-.15-3.2h27.35zm-27.35 8.01h27.35c.58-.01 1.11.29 1.4.79a1.6 1.6 0 0 1-1.4 2.41h-27.2a1.6 1.6 0 0 1-1.5-2.34c.26-.51.78-.84 1.35-.86zm19.35 18.4c0 3.55 2.85 6.4 6.4 6.4 3.55 0 6.4-2.85 6.4-6.4 0-3.56-2.85-6.4-6.4-6.4a6.37 6.37 0 0 0-6.4 6.4zm-24.95-4.8h16.15a1.6 1.6 0 1 1 0 3.2h-16a1.6 1.6 0 0 1-.15-3.2zm0 6.4h16.15c.58-.01 1.11.29 1.4.79a1.6 1.6 0 1 1-1.4 2.41h-16a1.6 1.6 0 0 1-1.5-2.34c.26-.51.78-.84 1.35-.86zm27.35 7.1v9.33l3.2-1.83c.5-.29 1.11-.29 1.6 0l3.2 1.83v-9.33c-1.22.56-2.57.9-4 .9a9.57 9.57 0 0 1-4-.9z"/><linearGradient id="a" x1="178.88" x2="178.88" y1="1494.91" y2="1436.15" gradientUnits="userSpaceOnUse"><stop offset="0" stop-color="#2bc06e"/><stop offset="1" stop-color="#2fcf77"/></linearGradient></defs><use fill="url(#a)" xlink:href="#b" transform="translate(-136 -1429)"/></svg>