<svg xmlns="http://www.w3.org/2000/svg" xmlns:xlink="http://www.w3.org/1999/xlink" width="73" height="73" viewBox="0 0 73 73"><defs><path id="b" d="M736 1465.9c0-19.8 16.1-35.9 35.9-35.9a35.93 35.93 0 0 1 35.89 35.9 35.93 35.93 0 0 1-35.89 35.89c-19.8 0-35.9-16.1-35.9-35.89zm3.81 0a32.04 32.04 0 0 0 13.26 25.95 38.54 38.54 0 0 1 3.95-10.36c-1.77-2.42-7.05-11.17-.61-22.1 3.68-6.26 9.32-7.23 14.78-8.18 4.38-.76 8.52-1.48 11.9-4.83a1.9 1.9 0 0 1 3.17.83c.25.83 5.87 20.61-2.31 31.86-3.42 4.72-8.7 7.22-15.69 7.44h-.06a1.9 1.9 0 0 1-.06-3.81c5.75-.18 10.03-2.16 12.73-5.87 5.41-7.45 3.6-20.06 2.42-25.69-3.68 2.48-7.76 3.18-11.45 3.82-5.02.88-9.36 1.63-12.15 6.36-4.47 7.6-2.18 13.7-.51 16.56a74.44 74.44 0 0 1 15.1-16.49 1.9 1.9 0 1 1 2.33 3.02c-.18.14-17.53 13.73-20.08 29.64 4.57 2.5 9.8 3.93 15.37 3.93a32.12 32.12 0 0 0 32.08-32.08 32.12 32.12 0 0 0-32.08-32.09 32.13 32.13 0 0 0-32.09 32.09z"/><linearGradient id="a" x1="791.13" x2="791.13" y1="1496.77" y2="1436.33" gradientUnits="userSpaceOnUse"><stop offset="0" stop-color="#2bc06e"/><stop offset="1" stop-color="#2fcf77"/></linearGradient></defs><use fill="url(#a)" xlink:href="#b" transform="translate(-735 -1429)"/></svg>