<svg xmlns="http://www.w3.org/2000/svg" xmlns:xlink="http://www.w3.org/1999/xlink" width="72" height="74" viewBox="0 0 72 74"><defs><path id="ld7ya" d="M490.38 1428.8c9.16 0 16.62 7.5 16.62 16.7 0 7-4.3 13.01-10.39 15.5l-.02 6.54c0 .45-.18.88-.49 1.2l-31.74 31.94a1.7 1.7 0 0 1-2.43 0l-26.42-26.56a1.72 1.72 0 0 1 0-2.45l31.76-31.91c.32-.32.75-.5 1.2-.52h16.78c.45.01.87.2 1.19.52l9.68 9.71c.32.33.5.77.5 1.23v3.9c0 .61-.32 1.19-.85 1.5a1.7 1.7 0 0 1-2.56-1.5v-3.2l-8.69-8.73H469.2l-30.06 30.23 24.01 24.12 30.04-30.18.03-4.86a16.79 16.79 0 0 1-7.57-.47 7.94 7.94 0 0 1-11.7.52 8.04 8.04 0 0 1 .01-11.29 7.92 7.92 0 0 1 13.02 2.77c.23.58.13 1.23-.26 1.7a1.71 1.71 0 0 1-2.93-.46 4.5 4.5 0 0 0-7.42-1.6 4.56 4.56 0 0 0 0 6.46 4.5 4.5 0 0 0 5.88.45 16.68 16.68 0 0 1-4.16-3.29 1.73 1.73 0 0 1 .89-2.84 1.7 1.7 0 0 1 1.63.52 13.22 13.22 0 0 0 22.99-8.94 13.22 13.22 0 0 0-23.5-8.33 1.7 1.7 0 0 1-2.93-.46 1.73 1.73 0 0 1 .27-1.7 16.57 16.57 0 0 1 12.95-6.22zm-22.34 29.87a1.72 1.72 0 0 1 1.21 2.96l-17.47 17.58a1.7 1.7 0 0 1-2.86-.78c-.16-.6.01-1.23.45-1.66l17.46-17.56a1.7 1.7 0 0 1 1.21-.54zm7.31 7.56h.16c.7-.02 1.34.4 1.61 1.04.28.65.13 1.4-.37 1.9l-17.46 17.57a1.7 1.7 0 0 1-2.86-.75c-.16-.6 0-1.23.43-1.67l17.49-17.57a1.7 1.7 0 0 1 1-.52z"/><linearGradient id="ld7yb" x1="490.13" x2="490.13" y1="1495.93" y2="1435.16" gradientUnits="userSpaceOnUse"><stop offset="0" stop-color="#2bc06e"/><stop offset="1" stop-color="#2fcf77"/></linearGradient></defs><use fill="url(#ld7yb)" xlink:href="#ld7ya" transform="translate(-435 -1428)"/></svg>