<svg xmlns="http://www.w3.org/2000/svg" xmlns:xlink="http://www.w3.org/1999/xlink" width="42" height="42" viewBox="0 0 42 42"><defs><path id="l5t3a" d="M668 251a21 21 0 1 1 42 0 21 21 0 0 1-42 0z"/><path id="l5t3b" d="M690.1 257.2s.4-.05.61-.27c.19-.2.18-.58.18-.58s-.02-1.76.81-2.02c.82-.26 1.88 1.7 3 2.46.84.57 1.49.44 1.49.44l2.99-.04s1.56-.1.82-1.3c-.06-.1-.43-.9-2.22-2.53-1.88-1.7-1.63-1.43.63-4.39 1.38-1.8 1.93-2.9 1.75-3.37-.16-.44-1.17-.33-1.17-.33l-3.37.03s-.25-.04-.43.07c-.18.1-.3.36-.3.36s-.53 1.39-1.25 2.57c-1.5 2.5-2.1 2.63-2.34 2.48-.57-.36-.43-1.45-.43-2.23 0-2.42.38-3.43-.73-3.7a5.86 5.86 0 0 0-1.57-.15c-1.2 0-2.22 0-2.8.28-.38.19-.67.6-.5.62.23.03.73.14 1 .5.35.45.33 1.49.33 1.49s.2 2.85-.46 3.2c-.45.25-1.07-.25-2.41-2.52a20.91 20.91 0 0 1-1.2-2.44s-.1-.24-.28-.37a1.4 1.4 0 0 0-.52-.2l-3.2.01s-.48.02-.66.22c-.15.18 0 .56 0 .56s2.5 5.76 5.33 8.66c2.6 2.66 5.56 2.48 5.56 2.48z"/></defs><use fill="#4c6c91" xlink:href="#l5t3a" transform="translate(-668 -230)"/><use fill="#fff" xlink:href="#l5t3b" transform="translate(-668 -230)"/></svg>