<svg xmlns="http://www.w3.org/2000/svg" xmlns:xlink="http://www.w3.org/1999/xlink" width="72" height="65" viewBox="0 0 72 65"><defs><path id="b" d="M1035 1492.01v-42.27a5.3 5.3 0 0 1 5.27-5.29h3.51l39.95-11.36c.44-.17.97-.09 1.41.18.44.26.7.7.79 1.23l1.49 9.95h7.29a7.05 7.05 0 0 1 7.02 7.05v8.01c2.99.44 5.27 3 5.27 6.08v10.57a6.16 6.16 0 0 1-5.27 6.08v8.01a7.05 7.05 0 0 1-7.02 7.05h-54.44a5.3 5.3 0 0 1-5.27-5.29zm65.85-29.06h-13.17a5.3 5.3 0 0 0-5.27 5.28v5.29a5.3 5.3 0 0 0 5.27 5.28h13.17c1.5 0 2.64-1.14 2.64-2.64v-10.57c0-1.5-1.14-2.64-2.64-2.64zm-44.25-18.5h27.31l-1.14-7.48zm-18.09 47.56c0 .97.79 1.77 1.76 1.77h54.44a3.53 3.53 0 0 0 3.51-3.53v-7.92h-10.54a8.82 8.82 0 0 1-8.78-8.81v-5.29c0-4.84 3.95-8.8 8.78-8.8h10.54v-7.93a3.52 3.52 0 0 0-3.51-3.52h-54.44c-.97 0-1.76.79-1.76 1.76z"/><path id="d" d="M1095.54 1471.28a5.3 5.3 0 0 1-5.27 5.29 5.3 5.3 0 0 1 0-10.57 5.3 5.3 0 0 1 5.27 5.28zm-3.52 0c0-.96-.79-1.76-1.75-1.76a1.77 1.77 0 0 0 0 3.53c.96 0 1.75-.8 1.75-1.77z"/><linearGradient id="a" x1="1090.13" x2="1090.13" y1="1492.35" y2="1438.62" gradientUnits="userSpaceOnUse"><stop offset="0" stop-color="#2bc06e"/><stop offset="1" stop-color="#2fcf77"/></linearGradient><linearGradient id="c" x1="1093.42" x2="1093.42" y1="1476.2" y2="1466.97" gradientUnits="userSpaceOnUse"><stop offset="0" stop-color="#2bc06e"/><stop offset="1" stop-color="#2fcf77"/></linearGradient></defs><use fill="url(#a)" xlink:href="#b" transform="translate(-1035 -1433)"/><use fill="url(#c)" xlink:href="#d" transform="translate(-1035 -1433)"/></svg>